<?xml version="1.0" encoding="UTF-8"?>
<svg width="30px" height="10px" viewBox="0 0 30 10" version="1.1" xmlns="http://www.w3.org/2000/svg" xmlns:xlink="http://www.w3.org/1999/xlink">
    <!-- Generator: Sketch 51.1 (57501) - http://www.bohemiancoding.com/sketch -->
    <title>logo-text</title>
    <desc>Created with Sketch.</desc>
    <defs></defs>
    <g id="Page-1" stroke="none" stroke-width="1" fill="none" fill-rule="evenodd">
        <g id="Artboard-2">
            <g id="logo-text" transform="translate(-5.000000, -4.900000)">
                <path d="M33.3916471,4.95682353 L34.9526471,4.95682353 L34.9526471,14.3318824 L33.3920588,14.3318824 L33.3916471,4.95682353 Z M29.6293529,7.93882353 C27.7792941,7.93882353 26.3434706,9.42941176 26.3434706,11.2407647 C26.3434706,13.0517059 27.7792941,14.4879412 29.6293529,14.4879412 C30.6834706,14.4879412 31.6198235,14.0975882 32.2288235,13.2625294 L31.1672941,12.3335882 C30.8317059,12.7704706 30.3552941,13.0595294 29.6293529,13.0595294 C28.8177647,13.0595294 28.1305294,12.544 27.9040588,11.7715294 L32.5335294,11.7715294 C32.557,11.5685294 32.5726471,11.3733529 32.5726471,11.1547059 C32.5726471,9.43764706 31.4098235,7.93882353 29.6297647,7.93882353 L29.6293529,7.93882353 Z M27.9279412,10.5457059 C28.1544118,9.81194118 28.763,9.29682353 29.6293529,9.29682353 C30.4648235,9.29682353 31.0034118,9.87452941 31.0812353,10.5457059 L27.9279412,10.5457059 Z M24.493,5.94794118 L22.932,5.94794118 L22.932,14.3397059 L24.493,14.3397059 L24.493,9.46070588 L26.0074706,9.46070588 L26.0074706,8.08705882 L24.493,8.08705882 L24.493,5.94794118 Z M22.2295294,8.08705882 L20.3794706,8.08705882 L18.9119412,9.97582353 L17.4913529,8.08705882 L15.6178235,8.08705882 L17.9125882,11.0764706 L15.4148235,14.3397059 L17.2883529,14.3397059 L18.8493529,12.2479412 L20.3872941,14.3397059 L22.2686471,14.3397059 L19.8174118,11.1077647 L22.2295294,8.08705882 Z" id="Shape" fill="#F2320A" fill-rule="nonzero"></path>
                <path d="M12.4875882,7.93882353 C10.6840588,7.93882353 9.18564706,9.39852941 9.18564706,11.2172941 C9.18564706,13.0282353 10.6844706,14.4957647 12.4875882,14.4957647 C14.2911176,14.4957647 15.7895294,13.0360588 15.7895294,11.2172941 C15.7895294,9.39852941 14.2907059,7.93882353 12.4875882,7.93882353 Z M12.4875882,13.0751765 C11.473,13.0751765 10.6840588,12.2631765 10.6840588,11.2094706 C10.6840588,10.1553529 11.473,9.34376471 12.4875882,9.34376471 C13.5021765,9.34376471 14.2911176,10.1557647 14.2911176,11.2090588 C14.2911176,12.2631765 13.5021765,13.0751765 12.4875882,13.0751765 Z M7.45294118,7.42329412 C7.45294118,6.68211765 7.68682353,6.33829412 8.35058824,6.33829412 L9.22476471,6.33829412 L9.22476471,4.96464706 L8.23323529,4.96464706 C6.86,4.96464706 5.88411765,5.58147059 5.88411765,7.43111765 L5.88411765,8.09529412 L4.78305882,8.09529412 L4.78305882,9.46894118 L5.88411765,9.46894118 L5.88411765,14.3479412 L7.44552941,14.3479412 L7.44552941,9.46852941 L8.95958824,9.46852941 L8.95958824,8.09529412 L7.44511765,8.09529412 L7.44511765,7.42411765 L7.45294118,7.42411765 L7.45294118,7.42329412 Z" id="Shape" fill="#F2320A" fill-rule="nonzero"></path>
                <polygon id="Shape" points="0 0 35 0 35 19.3529412 0 19.3529412"></polygon>
            </g>
        </g>
    </g>
</svg>