<?xml version="1.0"?>
<svg version="1.1" xmlns="http://www.w3.org/2000/svg" xmlns:xlink="http://www.w3.org/1999/xlink" width="640" height="200">
    <desc iVinci="yes" version="4.6" gridStep="4" showGrid="yes" snapToGrid="yes" codePlatform="0"/>
    <g id="Layer1" name="Layer 1" opacity="1">
        <g id="Shape1">
            <desc shapeID="1" type="0" basicInfo-basicType="5" basicInfo-roundedRectRadius="12" basicInfo-polygonSides="6" basicInfo-starPoints="5" bounding="rect(-54,-46.7655,108,93.5311)" text="" font-familyName="Kaiti SC" font-pixelSize="20" font-bold="0" font-underline="0" font-alignment="1" strokeStyle="0" markerStart="0" markerEnd="0" shadowEnabled="0" shadowOffsetX="0" shadowOffsetY="2" shadowBlur="4" shadowOpacity="160" blurEnabled="0" blurRadius="4" transform="matrix(0.989024,0,0,0.987326,61.9073,147.019)" pers-center="0,0" pers-size="0,0" pers-start="0,0" pers-end="0,0" locked="0" mesh="" flag=""/>
            <path id="shapePath1" d="M115.315,147.019 L88.6109,193.191 L35.2034,193.191 L8.5,147.018 L35.2041,100.846 L88.6115,100.846 L115.315,147.019 Z" style="stroke:none;fill-rule:evenodd;fill:#ffffff;fill-opacity:1;"/>
        </g>
        <g id="Shape2">
            <desc shapeID="2" type="0" basicInfo-basicType="5" basicInfo-roundedRectRadius="12" basicInfo-polygonSides="6" basicInfo-starPoints="5" bounding="rect(-54,-46.7655,108,93.5311)" text="" font-familyName="Kaiti SC" font-pixelSize="20" font-bold="0" font-underline="0" font-alignment="1" strokeStyle="0" markerStart="0" markerEnd="0" shadowEnabled="0" shadowOffsetX="0" shadowOffsetY="2" shadowBlur="4" shadowOpacity="160" blurEnabled="0" blurRadius="4" transform="matrix(0.989024,0,0,0.987326,61.9073,54.6729)" pers-center="0,0" pers-size="0,0" pers-start="0,0" pers-end="0,0" locked="0" mesh="" flag=""/>
            <path id="shapePath2" d="M115.315,54.6729 L88.6109,100.846 L35.2034,100.846 L8.5,54.6726 L35.2041,8.5 L88.6115,8.50058 L115.315,54.6729 Z" style="stroke:none;fill-rule:evenodd;fill:#ffffff;fill-opacity:1;"/>
        </g>
        <g id="Shape3">
            <desc shapeID="3" type="0" basicInfo-basicType="5" basicInfo-roundedRectRadius="12" basicInfo-polygonSides="6" basicInfo-starPoints="5" bounding="rect(-54,-46.7655,108,93.5311)" text="" font-familyName="Kaiti SC" font-pixelSize="20" font-bold="0" font-underline="0" font-alignment="1" strokeStyle="0" markerStart="0" markerEnd="0" shadowEnabled="0" shadowOffsetX="0" shadowOffsetY="2" shadowBlur="4" shadowOpacity="160" blurEnabled="0" blurRadius="4" transform="matrix(0.989024,0,0,0.987326,88.4834,100.846)" pers-center="0,0" pers-size="0,0" pers-start="0,0" pers-end="0,0" locked="0" mesh="" flag=""/>
            <path id="shapePath3" d="M141.891,100.846 L115.187,147.019 L61.7796,147.018 L35.0761,100.845 L61.7802,54.6729 L115.188,54.6734 L141.891,100.846 Z" style="stroke:#0d47a1;stroke-opacity:0.352941;stroke-width:1;stroke-linejoin:miter;stroke-miterlimit:2;stroke-linecap:round;fill-rule:evenodd;fill:#0031f3;fill-opacity:1;"/>
        </g>
        <g id="Shape4">
            <desc shapeID="4" type="0" basicInfo-basicType="5" basicInfo-roundedRectRadius="12" basicInfo-polygonSides="6" basicInfo-starPoints="5" bounding="rect(-54,-46.7655,108,93.5311)" text="" font-familyName="Kaiti SC" font-pixelSize="20" font-bold="0" font-underline="0" font-alignment="1" strokeStyle="0" markerStart="0" markerEnd="0" shadowEnabled="0" shadowOffsetX="0" shadowOffsetY="2" shadowBlur="4" shadowOpacity="160" blurEnabled="0" blurRadius="4" transform="matrix(0.989024,0,0,0.987326,61.9073,147.019)" pers-center="0,0" pers-size="0,0" pers-start="0,0" pers-end="0,0" locked="0" mesh="" flag=""/>
            <path id="shapePath4" d="M115.315,147.019 L88.6109,193.191 L35.2034,193.191 L8.5,147.018 L35.2041,100.846 L88.6115,100.846 L115.315,147.019 Z" style="stroke:#0d47a1;stroke-opacity:0.352941;stroke-width:1;stroke-linejoin:miter;stroke-miterlimit:2;stroke-linecap:round;fill-rule:evenodd;fill:#009cff;fill-opacity:0.556863;"/>
        </g>
        <g id="Shape5">
            <desc shapeID="5" type="0" basicInfo-basicType="5" basicInfo-roundedRectRadius="12" basicInfo-polygonSides="6" basicInfo-starPoints="5" bounding="rect(-54,-46.7655,108,93.5311)" text="" font-familyName="Kaiti SC" font-pixelSize="20" font-bold="0" font-underline="0" font-alignment="1" strokeStyle="0" markerStart="0" markerEnd="0" shadowEnabled="0" shadowOffsetX="0" shadowOffsetY="2" shadowBlur="4" shadowOpacity="160" blurEnabled="0" blurRadius="4" transform="matrix(0.989024,0,0,0.987326,61.9073,54.6729)" pers-center="0,0" pers-size="0,0" pers-start="0,0" pers-end="0,0" locked="0" mesh="" flag=""/>
            <path id="shapePath5" d="M115.315,54.6729 L88.6109,100.846 L35.2034,100.846 L8.5,54.6726 L35.2041,8.5 L88.6115,8.50058 L115.315,54.6729 Z" style="stroke:#0d47a1;stroke-opacity:0.352941;stroke-width:1;stroke-linejoin:miter;stroke-miterlimit:2;stroke-linecap:round;fill-rule:evenodd;fill:#ffffff;fill-opacity:0.580392;"/>
        </g>
        <g id="Shape6">
            <desc shapeID="6" type="0" basicInfo-basicType="4" basicInfo-roundedRectRadius="12" basicInfo-polygonSides="6" basicInfo-starPoints="5" bounding="rect(-19.6835,-19.6835,39.3671,39.3671)" text="" font-familyName="Kaiti SC" font-pixelSize="20" font-bold="0" font-underline="0" font-alignment="1" strokeStyle="0" markerStart="0" markerEnd="0" shadowEnabled="0" shadowOffsetX="0" shadowOffsetY="2" shadowBlur="4" shadowOpacity="160" blurEnabled="0" blurRadius="4" transform="matrix(1.02926,0,0,1.02926,53.1487,43.5182)" pers-center="0,0" pers-size="0,0" pers-start="0,0" pers-end="0,0" locked="0" mesh="" flag=""/>
            <path id="shapePath6" d="M32.8892,43.5182 C32.8892,32.3292 41.9597,23.2587 53.1487,23.2587 C64.3377,23.2587 73.4082,32.3292 73.4082,43.5182 C73.4081,54.7072 64.3377,63.7777 53.1487,63.7777 C41.9597,63.7777 32.8892,54.7072 32.8892,43.5182 Z" style="stroke:none;fill-rule:evenodd;fill:#ffeb3b;fill-opacity:1;"/>
        </g>
        <g id="Shape7">
            <desc shapeID="7" type="2" basicInfo-basicType="0" basicInfo-roundedRectRadius="12" basicInfo-polygonSides="6" basicInfo-starPoints="5" bounding="rect(-248.828,-28,497.656,56)" text="The Innovation Lair" font-familyName="Helvetica Neue" font-pixelSize="56" font-bold="0" font-underline="0" font-alignment="0" strokeStyle="0" markerStart="0" markerEnd="0" shadowEnabled="0" shadowOffsetX="0" shadowOffsetY="2" shadowBlur="4" shadowOpacity="160" blurEnabled="0" blurRadius="4" transform="matrix(1,0,0,1,405.328,100.5)" pers-center="0,0" pers-size="0,0" pers-start="0,0" pers-end="0,0" locked="0" mesh="" flag=""/>
            <path id="shapePath7" d="M169.955,85.3085 L169.955,120.812 L175.275,120.812 L175.275,85.3085 L188.603,85.3085 L188.603,80.8285 L156.627,80.8285 L156.627,85.3085 L169.955,85.3085 M192.24,80.8285 L192.24,120.812 L197,120.812 L197,104.461 C197,103.154 197.177,101.95 197.532,100.849 C197.887,99.7472 198.419,98.7858 199.128,97.9645 C199.837,97.1432 200.724,96.5085 201.788,96.0605 C202.852,95.6125 204.112,95.3885 205.568,95.3885 C207.397,95.3885 208.835,95.9112 209.88,96.9565 C210.925,98.0018 211.448,99.4205 211.448,101.213 L211.448,120.812 L216.208,120.812 L216.208,101.772 C216.208,100.204 216.049,98.7765 215.732,97.4885 C215.415,96.2005 214.864,95.0898 214.08,94.1565 C213.296,93.2232 212.269,92.4952 211,91.9725 C209.731,91.4498 208.144,91.1885 206.24,91.1885 C205.381,91.1885 204.495,91.2818 203.58,91.4685 C202.665,91.6552 201.788,91.9445 200.948,92.3365 C200.108,92.7285 199.352,93.2325 198.68,93.8485 C198.008,94.4645 197.485,95.2205 197.112,96.1165 L197,96.1165 L197,80.8285 L192.24,80.8285 M243.469,103.564 L226.837,103.564 C226.912,102.445 227.154,101.39 227.565,100.4 C227.976,99.4112 228.536,98.5432 229.245,97.7965 C229.954,97.0498 230.804,96.4618 231.793,96.0325 C232.782,95.6032 233.893,95.3885 235.125,95.3885 C236.32,95.3885 237.412,95.6032 238.401,96.0325 C239.39,96.4618 240.249,97.0405 240.977,97.7685 C241.705,98.4965 242.284,99.3645 242.713,100.372 C243.142,101.381 243.394,102.445 243.469,103.564 M248.061,111.629 L243.357,111.629 C242.946,113.533 242.097,114.951 240.809,115.884 C239.521,116.818 237.869,117.285 235.853,117.285 C234.285,117.285 232.922,117.023 231.765,116.501 C230.608,115.978 229.656,115.278 228.909,114.4 C228.162,113.523 227.621,112.515 227.285,111.377 C226.949,110.238 226.8,109.034 226.837,107.765 L248.509,107.765 C248.584,106.01 248.425,104.162 248.033,102.22 C247.641,100.279 246.932,98.4872 245.905,96.8445 C244.878,95.2018 243.516,93.8485 241.817,92.7845 C240.118,91.7205 237.981,91.1885 235.405,91.1885 C233.426,91.1885 231.606,91.5618 229.945,92.3085 C228.284,93.0552 226.846,94.1005 225.633,95.4445 C224.42,96.7885 223.477,98.3752 222.805,100.204 C222.133,102.034 221.797,104.05 221.797,106.253 C221.872,108.455 222.198,110.49 222.777,112.356 C223.356,114.223 224.224,115.828 225.381,117.173 C226.538,118.517 227.966,119.562 229.665,120.309 C231.364,121.055 233.37,121.428 235.685,121.428 C238.97,121.428 241.696,120.607 243.861,118.965 C246.026,117.322 247.426,114.877 248.061,111.629 M269.998,80.8285 L269.998,120.812 L275.318,120.812 L275.318,80.8285 L269.998,80.8285 M283.49,91.8605 L283.49,120.812 L288.25,120.812 L288.25,104.461 C288.25,103.154 288.427,101.95 288.782,100.849 C289.137,99.7472 289.669,98.7858 290.378,97.9645 C291.087,97.1432 291.974,96.5085 293.038,96.0605 C294.102,95.6125 295.362,95.3885 296.818,95.3885 C298.647,95.3885 300.085,95.9112 301.13,96.9565 C302.175,98.0018 302.698,99.4205 302.698,101.213 L302.698,120.812 L307.458,120.812 L307.458,101.772 C307.458,100.204 307.299,98.7765 306.982,97.4885 C306.665,96.2005 306.114,95.0898 305.33,94.1565 C304.546,93.2232 303.519,92.4952 302.25,91.9725 C300.981,91.4498 299.394,91.1885 297.49,91.1885 C293.197,91.1885 290.061,92.9432 288.082,96.4525 L287.97,96.4525 L287.97,91.8605 L283.49,91.8605 M314.615,91.8605 L314.615,120.812 L319.375,120.812 L319.375,104.461 C319.375,103.154 319.552,101.95 319.907,100.849 C320.262,99.7472 320.794,98.7858 321.503,97.9645 C322.212,97.1432 323.099,96.5085 324.163,96.0605 C325.227,95.6125 326.487,95.3885 327.943,95.3885 C329.772,95.3885 331.21,95.9112 332.255,96.9565 C333.3,98.0018 333.823,99.4205 333.823,101.213 L333.823,120.812 L338.583,120.812 L338.583,101.772 C338.583,100.204 338.424,98.7765 338.107,97.4885 C337.79,96.2005 337.239,95.0898 336.455,94.1565 C335.671,93.2232 334.644,92.4952 333.375,91.9725 C332.106,91.4498 330.519,91.1885 328.615,91.1885 C324.322,91.1885 321.186,92.9432 319.207,96.4525 L319.095,96.4525 L319.095,91.8605 L314.615,91.8605 M349.212,106.365 C349.212,104.61 349.445,103.051 349.912,101.688 C350.379,100.326 351.023,99.1778 351.844,98.2445 C352.665,97.3112 353.627,96.6018 354.728,96.1165 C355.829,95.6312 356.996,95.3885 358.228,95.3885 C359.46,95.3885 360.627,95.6312 361.728,96.1165 C362.829,96.6018 363.791,97.3112 364.612,98.2445 C365.433,99.1778 366.077,100.326 366.544,101.688 C367.011,103.051 367.244,104.61 367.244,106.365 C367.244,108.119 367.011,109.678 366.544,111.04 C366.077,112.403 365.433,113.542 364.612,114.456 C363.791,115.371 362.829,116.071 361.728,116.557 C360.627,117.042 359.46,117.285 358.228,117.285 C356.996,117.285 355.829,117.042 354.728,116.557 C353.627,116.071 352.665,115.371 351.844,114.456 C351.023,113.542 350.379,112.403 349.912,111.04 C349.445,109.678 349.212,108.119 349.212,106.365 M344.172,106.365 C344.172,108.493 344.471,110.471 345.068,112.3 C345.665,114.13 346.561,115.726 347.756,117.089 C348.951,118.451 350.425,119.515 352.18,120.281 C353.935,121.046 355.951,121.428 358.228,121.428 C360.543,121.428 362.568,121.046 364.304,120.281 C366.04,119.515 367.505,118.451 368.7,117.089 C369.895,115.726 370.791,114.13 371.388,112.3 C371.985,110.471 372.284,108.493 372.284,106.365 C372.284,104.237 371.985,102.248 371.388,100.4 C370.791,98.5525 369.895,96.9472 368.7,95.5845 C367.505,94.2218 366.04,93.1485 364.304,92.3645 C362.568,91.5805 360.543,91.1885 358.228,91.1885 C355.951,91.1885 353.935,91.5805 352.18,92.3645 C350.425,93.1485 348.951,94.2218 347.756,95.5845 C346.561,96.9472 345.665,98.5525 345.068,100.4 C344.471,102.248 344.172,104.237 344.172,106.365 M390.929,120.812 L401.513,91.8605 L396.529,91.8605 L388.633,115.996 L388.521,115.996 L380.401,91.8605 L375.081,91.8605 L385.833,120.812 L390.929,120.812 M431.529,120.701 C430.707,121.186 429.569,121.428 428.113,121.428 C426.881,121.428 425.901,121.083 425.173,120.393 C424.445,119.702 424.081,118.573 424.081,117.005 C422.774,118.573 421.253,119.702 419.517,120.393 C417.781,121.083 415.905,121.428 413.889,121.428 C412.582,121.428 411.341,121.279 410.165,120.98 C408.989,120.682 407.971,120.215 407.113,119.58 C406.254,118.946 405.573,118.115 405.069,117.089 C404.565,116.062 404.313,114.821 404.313,113.365 C404.313,111.722 404.593,110.378 405.153,109.333 C405.713,108.287 406.45,107.438 407.365,106.785 C408.279,106.131 409.325,105.636 410.501,105.3 C411.677,104.965 412.881,104.685 414.113,104.461 C415.419,104.199 416.661,104.003 417.837,103.872 C419.013,103.742 420.049,103.555 420.945,103.312 C421.841,103.07 422.55,102.715 423.073,102.248 C423.595,101.782 423.857,101.101 423.857,100.204 C423.857,99.1592 423.661,98.3192 423.269,97.6845 C422.877,97.0498 422.373,96.5645 421.757,96.2285 C421.141,95.8925 420.45,95.6685 419.685,95.5565 C418.919,95.4445 418.163,95.3885 417.417,95.3885 C415.401,95.3885 413.721,95.7712 412.377,96.5365 C411.033,97.3018 410.305,98.7485 410.193,100.877 L405.433,100.877 C405.507,99.0845 405.881,97.5725 406.553,96.3405 C407.225,95.1085 408.121,94.1098 409.241,93.3445 C410.361,92.5792 411.639,92.0285 413.077,91.6925 C414.514,91.3565 416.054,91.1885 417.697,91.1885 C419.003,91.1885 420.301,91.2818 421.589,91.4685 C422.877,91.6552 424.043,92.0378 425.089,92.6165 C426.134,93.1952 426.974,94.0072 427.609,95.0525 C428.243,96.0978 428.561,97.4605 428.561,99.1405 L428.561,114.036 C428.561,115.157 428.626,115.978 428.757,116.501 C428.887,117.023 429.326,117.285 430.073,117.285 C430.483,117.285 430.969,117.191 431.529,117.005 L431.529,120.701 M423.801,105.86 C423.203,106.309 422.419,106.635 421.449,106.84 C420.478,107.046 419.461,107.214 418.397,107.344 C417.333,107.475 416.259,107.624 415.177,107.793 C414.094,107.961 413.123,108.231 412.265,108.604 C411.406,108.978 410.706,109.51 410.165,110.201 C409.623,110.891 409.353,111.834 409.353,113.029 C409.353,113.812 409.511,114.475 409.829,115.017 C410.146,115.558 410.557,115.996 411.061,116.333 C411.565,116.669 412.153,116.911 412.825,117.061 C413.497,117.21 414.206,117.285 414.953,117.285 C416.521,117.285 417.865,117.07 418.985,116.641 C420.105,116.211 421.019,115.67 421.729,115.017 C422.438,114.363 422.961,113.654 423.297,112.889 C423.633,112.123 423.801,111.405 423.801,110.732 L423.801,105.86 M442.551,91.8605 L442.551,83.1805 L437.791,83.1805 L437.791,91.8605 L432.863,91.8605 L432.863,96.0605 L437.791,96.0605 L437.791,114.484 C437.791,115.828 437.922,116.911 438.183,117.732 C438.444,118.554 438.846,119.188 439.387,119.636 C439.928,120.085 440.638,120.393 441.515,120.561 C442.392,120.729 443.447,120.812 444.679,120.812 L448.319,120.812 L448.319,116.613 L446.135,116.613 C445.388,116.613 444.782,116.585 444.315,116.529 C443.848,116.473 443.484,116.351 443.223,116.164 C442.962,115.978 442.784,115.716 442.691,115.381 C442.598,115.045 442.551,114.596 442.551,114.036 L442.551,96.0605 L448.319,96.0605 L448.319,91.8605 L442.551,91.8605 M458.608,86.6525 L458.608,80.8285 L453.848,80.8285 L453.848,86.6525 L458.608,86.6525 M453.848,91.8605 L453.848,120.812 L458.608,120.812 L458.608,91.8605 L453.848,91.8605 M469.462,106.365 C469.462,104.61 469.695,103.051 470.162,101.688 C470.629,100.326 471.273,99.1778 472.094,98.2445 C472.915,97.3112 473.877,96.6018 474.978,96.1165 C476.079,95.6312 477.246,95.3885 478.478,95.3885 C479.71,95.3885 480.877,95.6312 481.978,96.1165 C483.079,96.6018 484.041,97.3112 484.862,98.2445 C485.683,99.1778 486.327,100.326 486.794,101.688 C487.261,103.051 487.494,104.61 487.494,106.365 C487.494,108.119 487.261,109.678 486.794,111.04 C486.327,112.403 485.683,113.542 484.862,114.456 C484.041,115.371 483.079,116.071 481.978,116.557 C480.877,117.042 479.71,117.285 478.478,117.285 C477.246,117.285 476.079,117.042 474.978,116.557 C473.877,116.071 472.915,115.371 472.094,114.456 C471.273,113.542 470.629,112.403 470.162,111.04 C469.695,109.678 469.462,108.119 469.462,106.365 M464.422,106.365 C464.422,108.493 464.721,110.471 465.318,112.3 C465.915,114.13 466.811,115.726 468.006,117.089 C469.201,118.451 470.675,119.515 472.43,120.281 C474.185,121.046 476.201,121.428 478.478,121.428 C480.793,121.428 482.818,121.046 484.554,120.281 C486.29,119.515 487.755,118.451 488.95,117.089 C490.145,115.726 491.041,114.13 491.638,112.3 C492.235,110.471 492.534,108.493 492.534,106.365 C492.534,104.237 492.235,102.248 491.638,100.4 C491.041,98.5525 490.145,96.9472 488.95,95.5845 C487.755,94.2218 486.29,93.1485 484.554,92.3645 C482.818,91.5805 480.793,91.1885 478.478,91.1885 C476.201,91.1885 474.185,91.5805 472.43,92.3645 C470.675,93.1485 469.201,94.2218 468.006,95.5845 C466.811,96.9472 465.915,98.5525 465.318,100.4 C464.721,102.248 464.422,104.237 464.422,106.365 M498.131,91.8605 L498.131,120.812 L502.891,120.812 L502.891,104.461 C502.891,103.154 503.068,101.95 503.423,100.849 C503.777,99.7472 504.309,98.7858 505.019,97.9645 C505.728,97.1432 506.615,96.5085 507.679,96.0605 C508.743,95.6125 510.003,95.3885 511.459,95.3885 C513.288,95.3885 514.725,95.9112 515.771,96.9565 C516.816,98.0018 517.339,99.4205 517.339,101.213 L517.339,120.812 L522.099,120.812 L522.099,101.772 C522.099,100.204 521.94,98.7765 521.623,97.4885 C521.305,96.2005 520.755,95.0898 519.971,94.1565 C519.187,93.2232 518.16,92.4952 516.891,91.9725 C515.621,91.4498 514.035,91.1885 512.131,91.1885 C507.837,91.1885 504.701,92.9432 502.723,96.4525 L502.611,96.4525 L502.611,91.8605 L498.131,91.8605 M545.602,80.8285 L545.602,120.812 L572.09,120.812 L572.09,116.333 L550.922,116.333 L550.922,80.8285 L545.602,80.8285 M601.591,120.701 C600.77,121.186 599.631,121.428 598.175,121.428 C596.943,121.428 595.963,121.083 595.235,120.393 C594.507,119.702 594.143,118.573 594.143,117.005 C592.836,118.573 591.315,119.702 589.579,120.393 C587.843,121.083 585.967,121.428 583.951,121.428 C582.644,121.428 581.403,121.279 580.227,120.98 C579.051,120.682 578.034,120.215 577.175,119.58 C576.316,118.946 575.635,118.115 575.131,117.089 C574.627,116.062 574.375,114.821 574.375,113.365 C574.375,111.722 574.655,110.378 575.215,109.333 C575.775,108.287 576.512,107.438 577.427,106.785 C578.342,106.131 579.387,105.636 580.563,105.3 C581.739,104.965 582.943,104.685 584.175,104.461 C585.482,104.199 586.723,104.003 587.899,103.872 C589.075,103.742 590.111,103.555 591.007,103.312 C591.903,103.07 592.612,102.715 593.135,102.248 C593.658,101.782 593.919,101.101 593.919,100.204 C593.919,99.1592 593.723,98.3192 593.331,97.6845 C592.939,97.0498 592.435,96.5645 591.819,96.2285 C591.203,95.8925 590.512,95.6685 589.747,95.5565 C588.982,95.4445 588.226,95.3885 587.479,95.3885 C585.463,95.3885 583.783,95.7712 582.439,96.5365 C581.095,97.3018 580.367,98.7485 580.255,100.877 L575.495,100.877 C575.57,99.0845 575.943,97.5725 576.615,96.3405 C577.287,95.1085 578.183,94.1098 579.303,93.3445 C580.423,92.5792 581.702,92.0285 583.139,91.6925 C584.576,91.3565 586.116,91.1885 587.759,91.1885 C589.066,91.1885 590.363,91.2818 591.651,91.4685 C592.939,91.6552 594.106,92.0378 595.151,92.6165 C596.196,93.1952 597.036,94.0072 597.671,95.0525 C598.306,96.0978 598.623,97.4605 598.623,99.1405 L598.623,114.036 C598.623,115.157 598.688,115.978 598.819,116.501 C598.95,117.023 599.388,117.285 600.135,117.285 C600.546,117.285 601.031,117.191 601.591,117.005 L601.591,120.701 M593.863,105.86 C593.266,106.309 592.482,106.635 591.511,106.84 C590.54,107.046 589.523,107.214 588.459,107.344 C587.395,107.475 586.322,107.624 585.239,107.793 C584.156,107.961 583.186,108.231 582.327,108.604 C581.468,108.978 580.768,109.51 580.227,110.201 C579.686,110.891 579.415,111.834 579.415,113.029 C579.415,113.812 579.574,114.475 579.891,115.017 C580.208,115.558 580.619,115.996 581.123,116.333 C581.627,116.669 582.215,116.911 582.887,117.061 C583.559,117.21 584.268,117.285 585.015,117.285 C586.583,117.285 587.927,117.07 589.047,116.641 C590.167,116.211 591.082,115.67 591.791,115.017 C592.5,114.363 593.023,113.654 593.359,112.889 C593.695,112.123 593.863,111.405 593.863,110.732 L593.863,105.86 M611.046,86.6525 L611.046,80.8285 L606.286,80.8285 L606.286,86.6525 L611.046,86.6525 M606.286,91.8605 L606.286,120.812 L611.046,120.812 L611.046,91.8605 L606.286,91.8605 M618.259,91.8605 L618.259,120.812 L623.019,120.812 L623.019,107.933 C623.019,106.066 623.206,104.414 623.579,102.977 C623.953,101.539 624.55,100.316 625.371,99.3085 C626.193,98.3005 627.275,97.5352 628.619,97.0125 C629.963,96.4898 631.587,96.2285 633.491,96.2285 L633.491,91.1885 C630.915,91.1138 628.787,91.6365 627.107,92.7565 C625.427,93.8765 624.009,95.6125 622.851,97.9645 L622.739,97.9645 L622.739,91.8605 L618.259,91.8605 Z" style="stroke:none;fill-rule:nonzero;fill:#777777;fill-opacity:1;"/>
        </g>
    </g>
    <g id="Layer2" name="Layer 2" opacity="1"/>
</svg>
