<?xml version="1.0"?>
<svg version="1.1" xmlns="http://www.w3.org/2000/svg" xmlns:xlink="http://www.w3.org/1999/xlink" width="640" height="200">
    <desc iVinci="yes" version="4.6" gridStep="4" showGrid="yes" snapToGrid="no" codePlatform="0"/>
    <g id="Layer1" name="Layer 1" opacity="1">
        <g id="Shape1">
            <desc shapeID="1" type="0" basicInfo-basicType="5" basicInfo-roundedRectRadius="12" basicInfo-polygonSides="6" basicInfo-starPoints="5" bounding="rect(-54,-46.7655,108,93.5311)" text="" font-familyName="Kaiti SC" font-pixelSize="20" font-bold="0" font-underline="0" font-alignment="1" strokeStyle="0" markerStart="0" markerEnd="0" shadowEnabled="0" shadowOffsetX="0" shadowOffsetY="2" shadowBlur="4" shadowOpacity="160" blurEnabled="0" blurRadius="4" transform="matrix(0.989024,0,0,0.987326,61.9073,147.019)" pers-center="0,0" pers-size="0,0" pers-start="0,0" pers-end="0,0" locked="0" mesh="" flag=""/>
            <path id="shapePath1" d="M115.315,147.019 L88.6109,193.191 L35.2034,193.191 L8.5,147.018 L35.2041,100.846 L88.6115,100.846 L115.315,147.019 Z" style="stroke:none;fill-rule:evenodd;fill:#ffffff;fill-opacity:1;"/>
        </g>
        <g id="Shape2">
            <desc shapeID="2" type="0" basicInfo-basicType="5" basicInfo-roundedRectRadius="12" basicInfo-polygonSides="6" basicInfo-starPoints="5" bounding="rect(-54,-46.7655,108,93.5311)" text="" font-familyName="Kaiti SC" font-pixelSize="20" font-bold="0" font-underline="0" font-alignment="1" strokeStyle="0" markerStart="0" markerEnd="0" shadowEnabled="0" shadowOffsetX="0" shadowOffsetY="2" shadowBlur="4" shadowOpacity="160" blurEnabled="0" blurRadius="4" transform="matrix(0.989024,0,0,0.987326,61.9073,54.6729)" pers-center="0,0" pers-size="0,0" pers-start="0,0" pers-end="0,0" locked="0" mesh="" flag=""/>
            <path id="shapePath2" d="M115.315,54.6729 L88.6109,100.846 L35.2034,100.846 L8.5,54.6726 L35.2041,8.5 L88.6115,8.50058 L115.315,54.6729 Z" style="stroke:none;fill-rule:evenodd;fill:#ffffff;fill-opacity:1;"/>
        </g>
        <g id="Shape3">
            <desc shapeID="3" type="0" basicInfo-basicType="5" basicInfo-roundedRectRadius="12" basicInfo-polygonSides="6" basicInfo-starPoints="5" bounding="rect(-54,-46.7655,108,93.5311)" text="" font-familyName="Kaiti SC" font-pixelSize="20" font-bold="0" font-underline="0" font-alignment="1" strokeStyle="0" markerStart="0" markerEnd="0" shadowEnabled="0" shadowOffsetX="0" shadowOffsetY="2" shadowBlur="4" shadowOpacity="160" blurEnabled="0" blurRadius="4" transform="matrix(0.989024,0,0,0.987326,88.4834,100.846)" pers-center="0,0" pers-size="0,0" pers-start="0,0" pers-end="0,0" locked="0" mesh="" flag=""/>
            <path id="shapePath3" d="M141.891,100.846 L115.187,147.019 L61.7796,147.018 L35.0761,100.845 L61.7802,54.6729 L115.188,54.6734 L141.891,100.846 Z" style="stroke:#0d47a1;stroke-opacity:0.352941;stroke-width:1;stroke-linejoin:miter;stroke-miterlimit:2;stroke-linecap:round;fill-rule:evenodd;fill:#0031f3;fill-opacity:1;"/>
        </g>
        <g id="Shape4">
            <desc shapeID="4" type="0" basicInfo-basicType="5" basicInfo-roundedRectRadius="12" basicInfo-polygonSides="6" basicInfo-starPoints="5" bounding="rect(-54,-46.7655,108,93.5311)" text="" font-familyName="Kaiti SC" font-pixelSize="20" font-bold="0" font-underline="0" font-alignment="1" strokeStyle="0" markerStart="0" markerEnd="0" shadowEnabled="0" shadowOffsetX="0" shadowOffsetY="2" shadowBlur="4" shadowOpacity="160" blurEnabled="0" blurRadius="4" transform="matrix(0.989024,0,0,0.987326,61.9073,54.6729)" pers-center="0,0" pers-size="0,0" pers-start="0,0" pers-end="0,0" locked="0" mesh="" flag=""/>
            <path id="shapePath4" d="M115.315,54.6729 L88.6109,100.846 L35.2034,100.846 L8.5,54.6726 L35.2041,8.5 L88.6115,8.50058 L115.315,54.6729 Z" style="stroke:#0d47a1;stroke-opacity:0.352941;stroke-width:1;stroke-linejoin:miter;stroke-miterlimit:2;stroke-linecap:round;fill-rule:evenodd;fill:#ffffff;fill-opacity:0.580392;"/>
        </g>
        <g id="Shape5">
            <desc shapeID="5" type="0" basicInfo-basicType="4" basicInfo-roundedRectRadius="12" basicInfo-polygonSides="6" basicInfo-starPoints="5" bounding="rect(-19.6835,-19.6835,39.3671,39.3671)" text="" font-familyName="Kaiti SC" font-pixelSize="20" font-bold="0" font-underline="0" font-alignment="1" strokeStyle="0" markerStart="0" markerEnd="0" shadowEnabled="0" shadowOffsetX="0" shadowOffsetY="2" shadowBlur="4" shadowOpacity="160" blurEnabled="0" blurRadius="4" transform="matrix(1.02926,0,0,1.02926,53.1487,43.5182)" pers-center="0,0" pers-size="0,0" pers-start="0,0" pers-end="0,0" locked="0" mesh="" flag=""/>
            <path id="shapePath5" d="M32.8892,43.5182 C32.8892,32.3292 41.9597,23.2587 53.1487,23.2587 C64.3377,23.2587 73.4082,32.3292 73.4082,43.5182 C73.4081,54.7072 64.3377,63.7777 53.1487,63.7777 C41.9597,63.7777 32.8892,54.7072 32.8892,43.5182 Z" style="stroke:none;fill-rule:evenodd;fill:#ffeb3b;fill-opacity:1;"/>
        </g>
    </g>
    <g id="Layer2" name="Layer 2" visibility="hidden" opacity="1">
        <g id="Shape6">
            <desc shapeID="6" type="2" basicInfo-basicType="0" basicInfo-roundedRectRadius="12" basicInfo-polygonSides="6" basicInfo-starPoints="5" bounding="rect(-248.828,-28,497.656,56)" text="The Innovation Lair" font-familyName="Helvetica Neue" font-pixelSize="56" font-bold="0" font-underline="0" font-alignment="0" strokeStyle="0" markerStart="0" markerEnd="0" shadowEnabled="0" shadowOffsetX="0" shadowOffsetY="2" shadowBlur="4" shadowOpacity="160" blurEnabled="0" blurRadius="4" transform="matrix(1,0,0,1,399.113,99.3715)" pers-center="0,0" pers-size="0,0" pers-start="0,0" pers-end="0,0" locked="0" mesh="" flag=""/>
            <path id="shapePath6" d="M163.741,84.18 L163.741,119.684 L169.061,119.684 L169.061,84.18 L182.389,84.18 L182.389,79.7 L150.413,79.7 L150.413,84.18 L163.741,84.18 M186.025,79.7 L186.025,119.684 L190.785,119.684 L190.785,103.332 C190.785,102.025 190.963,100.821 191.317,99.72 C191.672,98.6187 192.204,97.6573 192.913,96.836 C193.623,96.0147 194.509,95.38 195.573,94.932 C196.637,94.484 197.897,94.26 199.353,94.26 C201.183,94.26 202.62,94.7827 203.665,95.828 C204.711,96.8733 205.233,98.292 205.233,100.084 L205.233,119.684 L209.993,119.684 L209.993,100.644 C209.993,99.076 209.835,97.648 209.517,96.36 C209.2,95.072 208.649,93.9613 207.865,93.028 C207.081,92.0947 206.055,91.3667 204.785,90.844 C203.516,90.3213 201.929,90.06 200.025,90.06 C199.167,90.06 198.28,90.1533 197.365,90.34 C196.451,90.5267 195.573,90.816 194.733,91.208 C193.893,91.6 193.137,92.104 192.465,92.72 C191.793,93.336 191.271,94.092 190.897,94.988 L190.785,94.988 L190.785,79.7 L186.025,79.7 M237.254,102.436 L220.622,102.436 C220.697,101.316 220.94,100.261 221.35,99.272 C221.761,98.2827 222.321,97.4147 223.03,96.668 C223.74,95.9213 224.589,95.3333 225.578,94.904 C226.568,94.4747 227.678,94.26 228.91,94.26 C230.105,94.26 231.197,94.4747 232.186,94.904 C233.176,95.3333 234.034,95.912 234.762,96.64 C235.49,97.368 236.069,98.236 236.498,99.244 C236.928,100.252 237.18,101.316 237.254,102.436 M241.846,110.5 L237.142,110.5 C236.732,112.404 235.882,113.823 234.594,114.756 C233.306,115.689 231.654,116.156 229.638,116.156 C228.07,116.156 226.708,115.895 225.55,115.372 C224.393,114.849 223.441,114.149 222.694,113.272 C221.948,112.395 221.406,111.387 221.07,110.248 C220.734,109.109 220.585,107.905 220.622,106.636 L242.294,106.636 C242.369,104.881 242.21,103.033 241.818,101.092 C241.426,99.1507 240.717,97.3587 239.69,95.716 C238.664,94.0733 237.301,92.72 235.602,91.656 C233.904,90.592 231.766,90.06 229.19,90.06 C227.212,90.06 225.392,90.4333 223.73,91.18 C222.069,91.9267 220.632,92.972 219.418,94.316 C218.205,95.66 217.262,97.2467 216.59,99.076 C215.918,100.905 215.582,102.921 215.582,105.124 C215.657,107.327 215.984,109.361 216.562,111.228 C217.141,113.095 218.009,114.7 219.166,116.044 C220.324,117.388 221.752,118.433 223.45,119.18 C225.149,119.927 227.156,120.3 229.47,120.3 C232.756,120.3 235.481,119.479 237.646,117.836 C239.812,116.193 241.212,113.748 241.846,110.5 M263.783,79.7 L263.783,119.684 L269.103,119.684 L269.103,79.7 L263.783,79.7 M277.275,90.732 L277.275,119.684 L282.035,119.684 L282.035,103.332 C282.035,102.025 282.213,100.821 282.567,99.72 C282.922,98.6187 283.454,97.6573 284.163,96.836 C284.873,96.0147 285.759,95.38 286.823,94.932 C287.887,94.484 289.147,94.26 290.603,94.26 C292.433,94.26 293.87,94.7827 294.915,95.828 C295.961,96.8733 296.483,98.292 296.483,100.084 L296.483,119.684 L301.243,119.684 L301.243,100.644 C301.243,99.076 301.085,97.648 300.767,96.36 C300.45,95.072 299.899,93.9613 299.115,93.028 C298.331,92.0947 297.305,91.3667 296.035,90.844 C294.766,90.3213 293.179,90.06 291.275,90.06 C286.982,90.06 283.846,91.8147 281.867,95.324 L281.755,95.324 L281.755,90.732 L277.275,90.732 M308.4,90.732 L308.4,119.684 L313.16,119.684 L313.16,103.332 C313.16,102.025 313.338,100.821 313.692,99.72 C314.047,98.6187 314.579,97.6573 315.288,96.836 C315.998,96.0147 316.884,95.38 317.948,94.932 C319.012,94.484 320.272,94.26 321.728,94.26 C323.558,94.26 324.995,94.7827 326.04,95.828 C327.086,96.8733 327.608,98.292 327.608,100.084 L327.608,119.684 L332.368,119.684 L332.368,100.644 C332.368,99.076 332.21,97.648 331.892,96.36 C331.575,95.072 331.024,93.9613 330.24,93.028 C329.456,92.0947 328.43,91.3667 327.16,90.844 C325.891,90.3213 324.304,90.06 322.4,90.06 C318.107,90.06 314.971,91.8147 312.992,95.324 L312.88,95.324 L312.88,90.732 L308.4,90.732 M342.997,105.236 C342.997,103.481 343.231,101.923 343.697,100.56 C344.164,99.1973 344.808,98.0493 345.629,97.116 C346.451,96.1827 347.412,95.4733 348.513,94.988 C349.615,94.5027 350.781,94.26 352.013,94.26 C353.245,94.26 354.412,94.5027 355.513,94.988 C356.615,95.4733 357.576,96.1827 358.397,97.116 C359.219,98.0493 359.863,99.1973 360.329,100.56 C360.796,101.923 361.029,103.481 361.029,105.236 C361.029,106.991 360.796,108.549 360.329,109.912 C359.863,111.275 359.219,112.413 358.397,113.328 C357.576,114.243 356.615,114.943 355.513,115.428 C354.412,115.913 353.245,116.156 352.013,116.156 C350.781,116.156 349.615,115.913 348.513,115.428 C347.412,114.943 346.451,114.243 345.629,113.328 C344.808,112.413 344.164,111.275 343.697,109.912 C343.231,108.549 342.997,106.991 342.997,105.236 M337.957,105.236 C337.957,107.364 338.256,109.343 338.853,111.172 C339.451,113.001 340.347,114.597 341.541,115.96 C342.736,117.323 344.211,118.387 345.965,119.152 C347.72,119.917 349.736,120.3 352.013,120.3 C354.328,120.3 356.353,119.917 358.089,119.152 C359.825,118.387 361.291,117.323 362.485,115.96 C363.68,114.597 364.576,113.001 365.173,111.172 C365.771,109.343 366.069,107.364 366.069,105.236 C366.069,103.108 365.771,101.12 365.173,99.272 C364.576,97.424 363.68,95.8187 362.485,94.456 C361.291,93.0933 359.825,92.02 358.089,91.236 C356.353,90.452 354.328,90.06 352.013,90.06 C349.736,90.06 347.72,90.452 345.965,91.236 C344.211,92.02 342.736,93.0933 341.541,94.456 C340.347,95.8187 339.451,97.424 338.853,99.272 C338.256,101.12 337.957,103.108 337.957,105.236 M384.714,119.684 L395.298,90.732 L390.314,90.732 L382.418,114.868 L382.306,114.868 L374.186,90.732 L368.866,90.732 L379.618,119.684 L384.714,119.684 M425.314,119.572 C424.493,120.057 423.354,120.3 421.898,120.3 C420.666,120.3 419.686,119.955 418.958,119.264 C418.23,118.573 417.866,117.444 417.866,115.876 C416.559,117.444 415.038,118.573 413.302,119.264 C411.566,119.955 409.69,120.3 407.674,120.3 C406.367,120.3 405.126,120.151 403.95,119.852 C402.774,119.553 401.757,119.087 400.898,118.452 C400.039,117.817 399.358,116.987 398.854,115.96 C398.35,114.933 398.098,113.692 398.098,112.236 C398.098,110.593 398.378,109.249 398.938,108.204 C399.498,107.159 400.235,106.309 401.15,105.656 C402.065,105.003 403.11,104.508 404.286,104.172 C405.462,103.836 406.666,103.556 407.898,103.332 C409.205,103.071 410.446,102.875 411.622,102.744 C412.798,102.613 413.834,102.427 414.73,102.184 C415.626,101.941 416.335,101.587 416.858,101.12 C417.381,100.653 417.642,99.972 417.642,99.076 C417.642,98.0307 417.446,97.1907 417.054,96.556 C416.662,95.9213 416.158,95.436 415.542,95.1 C414.926,94.764 414.235,94.54 413.47,94.428 C412.705,94.316 411.949,94.26 411.202,94.26 C409.186,94.26 407.506,94.6427 406.162,95.408 C404.818,96.1733 404.09,97.62 403.978,99.748 L399.218,99.748 C399.293,97.956 399.666,96.444 400.338,95.212 C401.01,93.98 401.906,92.9813 403.026,92.216 C404.146,91.4507 405.425,90.9 406.862,90.564 C408.299,90.228 409.839,90.06 411.482,90.06 C412.789,90.06 414.086,90.1533 415.374,90.34 C416.662,90.5267 417.829,90.9093 418.874,91.488 C419.919,92.0667 420.759,92.8787 421.394,93.924 C422.029,94.9693 422.346,96.332 422.346,98.012 L422.346,112.908 C422.346,114.028 422.411,114.849 422.542,115.372 C422.673,115.895 423.111,116.156 423.858,116.156 C424.269,116.156 424.754,116.063 425.314,115.876 L425.314,119.572 M417.586,104.732 C416.989,105.18 416.205,105.507 415.234,105.712 C414.263,105.917 413.246,106.085 412.182,106.216 C411.118,106.347 410.045,106.496 408.962,106.664 C407.879,106.832 406.909,107.103 406.05,107.476 C405.191,107.849 404.491,108.381 403.95,109.072 C403.409,109.763 403.138,110.705 403.138,111.9 C403.138,112.684 403.297,113.347 403.614,113.888 C403.931,114.429 404.342,114.868 404.846,115.204 C405.35,115.54 405.938,115.783 406.61,115.932 C407.282,116.081 407.991,116.156 408.738,116.156 C410.306,116.156 411.65,115.941 412.77,115.512 C413.89,115.083 414.805,114.541 415.514,113.888 C416.223,113.235 416.746,112.525 417.082,111.76 C417.418,110.995 417.586,110.276 417.586,109.604 L417.586,104.732 M436.336,90.732 L436.336,82.052 L431.576,82.052 L431.576,90.732 L426.648,90.732 L426.648,94.932 L431.576,94.932 L431.576,113.356 C431.576,114.7 431.707,115.783 431.968,116.604 C432.23,117.425 432.631,118.06 433.172,118.508 C433.714,118.956 434.423,119.264 435.3,119.432 C436.178,119.6 437.232,119.684 438.464,119.684 L442.104,119.684 L442.104,115.484 L439.92,115.484 C439.174,115.484 438.567,115.456 438.1,115.4 C437.634,115.344 437.27,115.223 437.008,115.036 C436.747,114.849 436.57,114.588 436.476,114.252 C436.383,113.916 436.336,113.468 436.336,112.908 L436.336,94.932 L442.104,94.932 L442.104,90.732 L436.336,90.732 M452.393,85.524 L452.393,79.7 L447.633,79.7 L447.633,85.524 L452.393,85.524 M447.633,90.732 L447.633,119.684 L452.393,119.684 L452.393,90.732 L447.633,90.732 M463.247,105.236 C463.247,103.481 463.481,101.923 463.947,100.56 C464.414,99.1973 465.058,98.0493 465.879,97.116 C466.701,96.1827 467.662,95.4733 468.763,94.988 C469.865,94.5027 471.031,94.26 472.263,94.26 C473.495,94.26 474.662,94.5027 475.763,94.988 C476.865,95.4733 477.826,96.1827 478.647,97.116 C479.469,98.0493 480.113,99.1973 480.579,100.56 C481.046,101.923 481.279,103.481 481.279,105.236 C481.279,106.991 481.046,108.549 480.579,109.912 C480.113,111.275 479.469,112.413 478.647,113.328 C477.826,114.243 476.865,114.943 475.763,115.428 C474.662,115.913 473.495,116.156 472.263,116.156 C471.031,116.156 469.865,115.913 468.763,115.428 C467.662,114.943 466.701,114.243 465.879,113.328 C465.058,112.413 464.414,111.275 463.947,109.912 C463.481,108.549 463.247,106.991 463.247,105.236 M458.207,105.236 C458.207,107.364 458.506,109.343 459.103,111.172 C459.701,113.001 460.597,114.597 461.791,115.96 C462.986,117.323 464.461,118.387 466.215,119.152 C467.97,119.917 469.986,120.3 472.263,120.3 C474.578,120.3 476.603,119.917 478.339,119.152 C480.075,118.387 481.541,117.323 482.735,115.96 C483.93,114.597 484.826,113.001 485.423,111.172 C486.021,109.343 486.319,107.364 486.319,105.236 C486.319,103.108 486.021,101.12 485.423,99.272 C484.826,97.424 483.93,95.8187 482.735,94.456 C481.541,93.0933 480.075,92.02 478.339,91.236 C476.603,90.452 474.578,90.06 472.263,90.06 C469.986,90.06 467.97,90.452 466.215,91.236 C464.461,92.02 462.986,93.0933 461.791,94.456 C460.597,95.8187 459.701,97.424 459.103,99.272 C458.506,101.12 458.207,103.108 458.207,105.236 M491.916,90.732 L491.916,119.684 L496.676,119.684 L496.676,103.332 C496.676,102.025 496.853,100.821 497.208,99.72 C497.563,98.6187 498.095,97.6573 498.804,96.836 C499.513,96.0147 500.4,95.38 501.464,94.932 C502.528,94.484 503.788,94.26 505.244,94.26 C507.073,94.26 508.511,94.7827 509.556,95.828 C510.601,96.8733 511.124,98.292 511.124,100.084 L511.124,119.684 L515.884,119.684 L515.884,100.644 C515.884,99.076 515.725,97.648 515.408,96.36 C515.091,95.072 514.54,93.9613 513.756,93.028 C512.972,92.0947 511.945,91.3667 510.676,90.844 C509.407,90.3213 507.82,90.06 505.916,90.06 C501.623,90.06 498.487,91.8147 496.508,95.324 L496.396,95.324 L496.396,90.732 L491.916,90.732 M539.387,79.7 L539.387,119.684 L565.875,119.684 L565.875,115.204 L544.707,115.204 L544.707,79.7 L539.387,79.7 M595.376,119.572 C594.555,120.057 593.416,120.3 591.96,120.3 C590.728,120.3 589.748,119.955 589.02,119.264 C588.292,118.573 587.928,117.444 587.928,115.876 C586.622,117.444 585.1,118.573 583.364,119.264 C581.628,119.955 579.752,120.3 577.736,120.3 C576.43,120.3 575.188,120.151 574.012,119.852 C572.836,119.553 571.819,119.087 570.96,118.452 C570.102,117.817 569.42,116.987 568.916,115.96 C568.412,114.933 568.16,113.692 568.16,112.236 C568.16,110.593 568.44,109.249 569,108.204 C569.56,107.159 570.298,106.309 571.212,105.656 C572.127,105.003 573.172,104.508 574.348,104.172 C575.524,103.836 576.728,103.556 577.96,103.332 C579.267,103.071 580.508,102.875 581.684,102.744 C582.86,102.613 583.896,102.427 584.792,102.184 C585.688,101.941 586.398,101.587 586.92,101.12 C587.443,100.653 587.704,99.972 587.704,99.076 C587.704,98.0307 587.508,97.1907 587.116,96.556 C586.724,95.9213 586.22,95.436 585.604,95.1 C584.988,94.764 584.298,94.54 583.532,94.428 C582.767,94.316 582.011,94.26 581.264,94.26 C579.248,94.26 577.568,94.6427 576.224,95.408 C574.88,96.1733 574.152,97.62 574.04,99.748 L569.28,99.748 C569.355,97.956 569.728,96.444 570.4,95.212 C571.072,93.98 571.968,92.9813 573.088,92.216 C574.208,91.4507 575.487,90.9 576.924,90.564 C578.362,90.228 579.902,90.06 581.544,90.06 C582.851,90.06 584.148,90.1533 585.436,90.34 C586.724,90.5267 587.891,90.9093 588.936,91.488 C589.982,92.0667 590.822,92.8787 591.456,93.924 C592.091,94.9693 592.408,96.332 592.408,98.012 L592.408,112.908 C592.408,114.028 592.474,114.849 592.604,115.372 C592.735,115.895 593.174,116.156 593.92,116.156 C594.331,116.156 594.816,116.063 595.376,115.876 L595.376,119.572 M587.648,104.732 C587.051,105.18 586.267,105.507 585.296,105.712 C584.326,105.917 583.308,106.085 582.244,106.216 C581.18,106.347 580.107,106.496 579.024,106.664 C577.942,106.832 576.971,107.103 576.112,107.476 C575.254,107.849 574.554,108.381 574.012,109.072 C573.471,109.763 573.2,110.705 573.2,111.9 C573.2,112.684 573.359,113.347 573.676,113.888 C573.994,114.429 574.404,114.868 574.908,115.204 C575.412,115.54 576,115.783 576.672,115.932 C577.344,116.081 578.054,116.156 578.8,116.156 C580.368,116.156 581.712,115.941 582.832,115.512 C583.952,115.083 584.867,114.541 585.576,113.888 C586.286,113.235 586.808,112.525 587.144,111.76 C587.48,110.995 587.648,110.276 587.648,109.604 L587.648,104.732 M604.831,85.524 L604.831,79.7 L600.071,79.7 L600.071,85.524 L604.831,85.524 M600.071,90.732 L600.071,119.684 L604.831,119.684 L604.831,90.732 L600.071,90.732 M612.045,90.732 L612.045,119.684 L616.805,119.684 L616.805,106.804 C616.805,104.937 616.991,103.285 617.365,101.848 C617.738,100.411 618.335,99.188 619.157,98.18 C619.978,97.172 621.061,96.4067 622.405,95.884 C623.749,95.3613 625.373,95.1 627.277,95.1 L627.277,90.06 C624.701,89.9853 622.573,90.508 620.893,91.628 C619.213,92.748 617.794,94.484 616.637,96.836 L616.525,96.836 L616.525,90.732 L612.045,90.732 Z" style="stroke:none;fill-rule:nonzero;fill:#777777;fill-opacity:1;"/>
        </g>
    </g>
    <g id="Layer3" name="Layer 3" opacity="1">
        <g id="Shape7">
            <desc shapeID="7" type="2" basicInfo-basicType="0" basicInfo-roundedRectRadius="12" basicInfo-polygonSides="6" basicInfo-starPoints="5" bounding="rect(-131.289,-28,262.577,56)" text="Innovation" font-familyName="Helvetica" font-pixelSize="56" font-bold="0" font-underline="0" font-alignment="0" strokeStyle="0" markerStart="0" markerEnd="0" shadowEnabled="0" shadowOffsetX="0" shadowOffsetY="2" shadowBlur="4" shadowOpacity="160" blurEnabled="0" blurRadius="4" transform="matrix(1,0,0,1,278.109,104.426)" pers-center="0,0" pers-size="0,0" pers-start="0,0" pers-end="0,0" locked="0" mesh="" flag=""/>
            <path id="shapePath7" d="M152.323,79.3828 L157.82,79.3828 L157.82,119.551 L152.323,119.551 L152.323,79.3828 M165.984,90.2656 L170.659,90.2656 L170.659,94.4219 C172.045,92.7083 173.512,91.4779 175.062,90.7305 C176.611,89.9831 178.334,89.6094 180.23,89.6094 C184.386,89.6094 187.193,91.0586 188.652,93.957 C189.454,95.543 189.855,97.8125 189.855,100.766 L189.855,119.551 L184.851,119.551 L184.851,101.094 C184.851,99.3073 184.586,97.8672 184.058,96.7734 C183.183,94.9505 181.597,94.0391 179.3,94.0391 C178.133,94.0391 177.176,94.1576 176.429,94.3945 C175.08,94.7956 173.895,95.5977 172.874,96.8008 C172.054,97.7669 171.521,98.765 171.275,99.7949 C171.029,100.825 170.905,102.297 170.905,104.211 L170.905,119.551 L165.984,119.551 L165.984,90.2656 M197.124,90.2656 L201.8,90.2656 L201.8,94.4219 C203.185,92.7083 204.653,91.4779 206.202,90.7305 C207.752,89.9831 209.474,89.6094 211.37,89.6094 C215.527,89.6094 218.334,91.0586 219.792,93.957 C220.594,95.543 220.995,97.8125 220.995,100.766 L220.995,119.551 L215.991,119.551 L215.991,101.094 C215.991,99.3073 215.727,97.8672 215.198,96.7734 C214.323,94.9505 212.737,94.0391 210.441,94.0391 C209.274,94.0391 208.317,94.1576 207.57,94.3945 C206.221,94.7956 205.036,95.5977 204.015,96.8008 C203.195,97.7669 202.661,98.765 202.415,99.7949 C202.169,100.825 202.046,102.297 202.046,104.211 L202.046,119.551 L197.124,119.551 L197.124,90.2656 M246.599,112.674 C247.811,110.204 248.417,107.456 248.417,104.43 C248.417,101.695 247.98,99.4714 247.105,97.7578 C245.719,95.0599 243.331,93.7109 239.941,93.7109 C236.933,93.7109 234.745,94.8594 233.378,97.1562 C232.011,99.4531 231.327,102.224 231.327,105.469 C231.327,108.586 232.011,111.184 233.378,113.262 C234.745,115.34 236.915,116.379 239.886,116.379 C243.149,116.379 245.387,115.144 246.599,112.674 M249.648,93.1914 C252.254,95.707 253.558,99.4076 253.558,104.293 C253.558,109.014 252.409,112.915 250.112,115.996 C247.816,119.077 244.252,120.617 239.421,120.617 C235.392,120.617 232.193,119.255 229.823,116.529 C227.454,113.804 226.269,110.145 226.269,105.551 C226.269,100.629 227.517,96.7096 230.015,93.793 C232.512,90.8763 235.866,89.418 240.077,89.418 C243.851,89.418 247.041,90.6758 249.648,93.1914 M261.812,90.2656 L269.632,114.109 L277.808,90.2656 L283.195,90.2656 L272.148,119.551 L266.898,119.551 L256.097,90.2656 L261.812,90.2656 M292.737,115.121 C293.777,115.941 295.007,116.352 296.429,116.352 C298.161,116.352 299.838,115.951 301.46,115.148 C304.195,113.818 305.562,111.639 305.562,108.613 L305.562,104.648 C304.96,105.031 304.185,105.35 303.237,105.605 C302.29,105.861 301.36,106.043 300.448,106.152 L297.468,106.535 C295.681,106.772 294.342,107.146 293.448,107.656 C291.935,108.513 291.179,109.88 291.179,111.758 C291.179,113.18 291.698,114.301 292.737,115.121 M303.101,101.805 C304.231,101.659 304.987,101.185 305.37,100.383 C305.589,99.9453 305.698,99.3164 305.698,98.4961 C305.698,96.819 305.101,95.6022 303.907,94.8457 C302.713,94.0892 301.004,93.7109 298.78,93.7109 C296.21,93.7109 294.387,94.4036 293.312,95.7891 C292.71,96.5547 292.318,97.694 292.136,99.207 L287.542,99.207 C287.633,95.5977 288.805,93.0866 291.056,91.6738 C293.307,90.2611 295.918,89.5547 298.89,89.5547 C302.335,89.5547 305.133,90.2109 307.284,91.5234 C309.417,92.8359 310.484,94.8776 310.484,97.6484 L310.484,114.52 C310.484,115.03 310.588,115.44 310.798,115.75 C311.008,116.06 311.45,116.215 312.124,116.215 C312.343,116.215 312.589,116.201 312.862,116.174 C313.136,116.146 313.428,116.105 313.737,116.051 L313.737,119.688 C312.972,119.906 312.389,120.043 311.987,120.098 C311.586,120.152 311.04,120.18 310.347,120.18 C308.652,120.18 307.421,119.578 306.655,118.375 C306.254,117.737 305.972,116.835 305.808,115.668 C304.805,116.98 303.365,118.12 301.487,119.086 C299.61,120.052 297.541,120.535 295.28,120.535 C292.564,120.535 290.345,119.71 288.622,118.061 C286.9,116.411 286.038,114.346 286.038,111.867 C286.038,109.151 286.886,107.046 288.581,105.551 C290.277,104.056 292.501,103.135 295.253,102.789 L303.101,101.805 M319.53,82.0898 L324.507,82.0898 L324.507,90.2656 L329.183,90.2656 L329.183,94.2852 L324.507,94.2852 L324.507,113.398 C324.507,114.419 324.853,115.103 325.546,115.449 C325.929,115.65 326.567,115.75 327.46,115.75 C327.697,115.75 327.952,115.745 328.226,115.736 C328.499,115.727 328.818,115.704 329.183,115.668 L329.183,119.551 C328.618,119.715 328.03,119.833 327.419,119.906 C326.808,119.979 326.148,120.016 325.437,120.016 C323.14,120.016 321.581,119.428 320.761,118.252 C319.941,117.076 319.53,115.549 319.53,113.672 L319.53,94.2852 L315.566,94.2852 L315.566,90.2656 L319.53,90.2656 L319.53,82.0898 M334.093,90.4023 L339.097,90.4023 L339.097,119.551 L334.093,119.551 L334.093,90.4023 M334.093,79.3828 L339.097,79.3828 L339.097,84.9609 L334.093,84.9609 L334.093,79.3828 M364.864,112.674 C366.077,110.204 366.683,107.456 366.683,104.43 C366.683,101.695 366.245,99.4714 365.37,97.7578 C363.985,95.0599 361.597,93.7109 358.206,93.7109 C355.198,93.7109 353.011,94.8594 351.644,97.1562 C350.277,99.4531 349.593,102.224 349.593,105.469 C349.593,108.586 350.277,111.184 351.644,113.262 C353.011,115.34 355.18,116.379 358.152,116.379 C361.415,116.379 363.652,115.144 364.864,112.674 M367.913,93.1914 C370.52,95.707 371.823,99.4076 371.823,104.293 C371.823,109.014 370.675,112.915 368.378,115.996 C366.081,119.077 362.517,120.617 357.687,120.617 C353.658,120.617 350.459,119.255 348.089,116.529 C345.719,113.804 344.534,110.145 344.534,105.551 C344.534,100.629 345.783,96.7096 348.28,93.793 C350.778,90.8763 354.132,89.418 358.343,89.418 C362.116,89.418 365.306,90.6758 367.913,93.1914 M377.671,90.2656 L382.347,90.2656 L382.347,94.4219 C383.732,92.7083 385.2,91.4779 386.749,90.7305 C388.299,89.9831 390.021,89.6094 391.917,89.6094 C396.073,89.6094 398.881,91.0586 400.339,93.957 C401.141,95.543 401.542,97.8125 401.542,100.766 L401.542,119.551 L396.538,119.551 L396.538,101.094 C396.538,99.3073 396.274,97.8672 395.745,96.7734 C394.87,94.9505 393.284,94.0391 390.987,94.0391 C389.821,94.0391 388.864,94.1576 388.116,94.3945 C386.767,94.7956 385.583,95.5977 384.562,96.8008 C383.741,97.7669 383.208,98.765 382.962,99.7949 C382.716,100.825 382.593,102.297 382.593,104.211 L382.593,119.551 L377.671,119.551 L377.671,90.2656 Z" style="stroke:none;fill-rule:nonzero;fill:#777777;fill-opacity:1;"/>
        </g>
    </g>
    <g id="Layer4" name="Layer 4" opacity="1">
        <g id="Shape8">
            <desc shapeID="8" type="2" basicInfo-basicType="0" basicInfo-roundedRectRadius="12" basicInfo-polygonSides="6" basicInfo-starPoints="5" bounding="rect(-55.0471,-28,110.094,56)" text="Lair" font-familyName="Helvetica Neue" font-pixelSize="56" font-bold="1" font-underline="0" font-alignment="0" strokeStyle="0" markerStart="0" markerEnd="0" shadowEnabled="0" shadowOffsetX="0" shadowOffsetY="2" shadowBlur="4" shadowOpacity="160" blurEnabled="0" blurRadius="4" transform="matrix(1,0,0,1,460.337,99.0186)" pers-center="0,0" pers-size="0,0" pers-start="0,0" pers-end="0,0" locked="0" mesh="" flag=""/>
            <path id="shapePath8" d="M409.155,79.644 L409.155,119.628 L437.435,119.628 L437.435,112.236 L417.947,112.236 L417.947,79.644 L409.155,79.644 M441.182,99.58 C441.294,97.7133 441.76,96.164 442.582,94.932 C443.403,93.7 444.448,92.7107 445.718,91.964 C446.987,91.2173 448.415,90.6853 450.002,90.368 C451.588,90.0507 453.184,89.892 454.79,89.892 C456.246,89.892 457.72,89.9947 459.214,90.2 C460.707,90.4053 462.07,90.8067 463.302,91.404 C464.534,92.0013 465.542,92.832 466.326,93.896 C467.11,94.96 467.502,96.3693 467.502,98.124 L467.502,113.188 C467.502,114.495 467.576,115.745 467.726,116.94 C467.875,118.135 468.136,119.031 468.51,119.628 L460.446,119.628 C460.296,119.18 460.175,118.723 460.082,118.256 C459.988,117.789 459.923,117.313 459.886,116.828 C458.616,118.135 457.123,119.049 455.406,119.572 C453.688,120.095 451.934,120.356 450.142,120.356 C448.76,120.356 447.472,120.188 446.278,119.852 C445.083,119.516 444.038,118.993 443.142,118.284 C442.246,117.575 441.546,116.679 441.042,115.596 C440.538,114.513 440.286,113.225 440.286,111.732 C440.286,110.089 440.575,108.736 441.154,107.672 C441.732,106.608 442.479,105.759 443.394,105.124 C444.308,104.489 445.354,104.013 446.53,103.696 C447.706,103.379 448.891,103.127 450.086,102.94 C451.28,102.753 452.456,102.604 453.614,102.492 C454.771,102.38 455.798,102.212 456.694,101.988 C457.59,101.764 458.299,101.437 458.822,101.008 C459.344,100.579 459.587,99.9533 459.55,99.132 C459.55,98.2733 459.41,97.592 459.13,97.088 C458.85,96.584 458.476,96.192 458.01,95.912 C457.543,95.632 457.002,95.4453 456.386,95.352 C455.77,95.2587 455.107,95.212 454.398,95.212 C452.83,95.212 451.598,95.548 450.702,96.22 C449.806,96.892 449.283,98.012 449.134,99.58 L441.182,99.58 M459.55,105.46 C459.214,105.759 458.794,105.992 458.29,106.16 C457.786,106.328 457.244,106.468 456.666,106.58 C456.087,106.692 455.48,106.785 454.846,106.86 C454.211,106.935 453.576,107.028 452.942,107.14 C452.344,107.252 451.756,107.401 451.178,107.588 C450.599,107.775 450.095,108.027 449.666,108.344 C449.236,108.661 448.891,109.063 448.63,109.548 C448.368,110.033 448.238,110.649 448.238,111.396 C448.238,112.105 448.368,112.703 448.63,113.188 C448.891,113.673 449.246,114.056 449.694,114.336 C450.142,114.616 450.664,114.812 451.262,114.924 C451.859,115.036 452.475,115.092 453.11,115.092 C454.678,115.092 455.891,114.831 456.75,114.308 C457.608,113.785 458.243,113.16 458.654,112.432 C459.064,111.704 459.316,110.967 459.41,110.22 C459.503,109.473 459.55,108.876 459.55,108.428 L459.55,105.46 M481.834,86.196 L481.834,79.644 L473.882,79.644 L473.882,86.196 L481.834,86.196 M473.882,90.676 L473.882,119.628 L481.834,119.628 L481.834,90.676 L473.882,90.676 M488.096,90.676 L488.096,119.628 L496.048,119.628 L496.048,106.58 C496.048,105.273 496.179,104.06 496.44,102.94 C496.701,101.82 497.14,100.84 497.756,100 C498.372,99.16 499.184,98.4973 500.192,98.012 C501.2,97.5267 502.432,97.284 503.888,97.284 C504.373,97.284 504.877,97.312 505.4,97.368 C505.923,97.424 506.371,97.4893 506.744,97.564 L506.744,90.172 C506.109,89.9853 505.531,89.892 505.008,89.892 C504,89.892 503.029,90.0413 502.096,90.34 C501.163,90.6387 500.285,91.0587 499.464,91.6 C498.643,92.1413 497.915,92.7947 497.28,93.56 C496.645,94.3253 496.141,95.156 495.768,96.052 L495.656,96.052 L495.656,90.676 L488.096,90.676 Z" style="stroke:none;fill-rule:nonzero;fill:#434343;fill-opacity:1;"/>
        </g>
    </g>
    <g id="Layer5" name="Layer 5" visibility="hidden" opacity="1">
        <g id="Shape9">
            <desc shapeID="9" type="0" basicInfo-basicType="5" basicInfo-roundedRectRadius="12" basicInfo-polygonSides="6" basicInfo-starPoints="5" bounding="rect(-54,-46.7655,108,93.5311)" text="" font-familyName="Kaiti SC" font-pixelSize="20" font-bold="0" font-underline="0" font-alignment="1" strokeStyle="0" markerStart="0" markerEnd="0" shadowEnabled="0" shadowOffsetX="0" shadowOffsetY="2" shadowBlur="4" shadowOpacity="160" blurEnabled="0" blurRadius="4" transform="matrix(0.989024,0,0,0.987326,61.8479,146.807)" pers-center="0,0" pers-size="0,0" pers-start="0,0" pers-end="0,0" locked="0" mesh="" flag=""/>
            <path id="shapePath9" d="M115.255,146.807 L88.5514,192.98 L35.144,192.979 L8.44059,146.806 L35.1447,100.634 L88.5521,100.634 L115.255,146.807 Z" style="stroke:#0d47a1;stroke-opacity:0.352941;stroke-width:1;stroke-linejoin:miter;stroke-miterlimit:2;stroke-linecap:round;fill-rule:evenodd;fill:#009cff;fill-opacity:0.556863;"/>
        </g>
    </g>
</svg>
