<?xml version="1.0"?>
<svg version="1.1" xmlns="http://www.w3.org/2000/svg" xmlns:xlink="http://www.w3.org/1999/xlink" width="380" height="60">
    <desc iVinci="yes" version="4.6" gridStep="10" showGrid="yes" snapToGrid="no" codePlatform="0"/>
    <g id="Layer1" name="Layer 1" opacity="1">
        <g id="Shape1">
            <desc shapeID="1" type="2" basicInfo-basicType="0" basicInfo-roundedRectRadius="12" basicInfo-polygonSides="6" basicInfo-starPoints="5" bounding="rect(-131.289,-28,262.577,56)" text="Innovation" font-familyName="Helvetica" font-pixelSize="56" font-bold="0" font-underline="0" font-alignment="0" strokeStyle="0" markerStart="0" markerEnd="0" shadowEnabled="0" shadowOffsetX="0" shadowOffsetY="2" shadowBlur="4" shadowOpacity="160" blurEnabled="0" blurRadius="4" transform="matrix(1,0,0,1,139,36)" pers-center="0,0" pers-size="0,0" pers-start="0,0" pers-end="0,0" locked="0" mesh="" flag=""/>
            <path id="shapePath1" d="M13.2148,10.957 L18.7109,10.957 L18.7109,51.125 L13.2148,51.125 L13.2148,10.957 M26.875,21.8398 L31.5508,21.8398 L31.5508,25.9961 C32.9362,24.2826 34.4036,23.0521 35.9531,22.3047 C37.5026,21.5573 39.2253,21.1836 41.1211,21.1836 C45.2773,21.1836 48.0846,22.6328 49.543,25.5312 C50.3451,27.1172 50.7461,29.3867 50.7461,32.3398 L50.7461,51.125 L45.7422,51.125 L45.7422,32.668 C45.7422,30.8815 45.4779,29.4414 44.9492,28.3477 C44.0742,26.5247 42.4883,25.6133 40.1914,25.6133 C39.0247,25.6133 38.0677,25.7318 37.3203,25.9688 C35.9714,26.3698 34.7865,27.1719 33.7656,28.375 C32.9453,29.3411 32.4121,30.3392 32.166,31.3691 C31.9199,32.3991 31.7969,33.8711 31.7969,35.7852 L31.7969,51.125 L26.875,51.125 L26.875,21.8398 M58.0156,21.8398 L62.6914,21.8398 L62.6914,25.9961 C64.0768,24.2826 65.5443,23.0521 67.0938,22.3047 C68.6432,21.5573 70.3659,21.1836 72.2617,21.1836 C76.418,21.1836 79.2253,22.6328 80.6836,25.5312 C81.4857,27.1172 81.8867,29.3867 81.8867,32.3398 L81.8867,51.125 L76.8828,51.125 L76.8828,32.668 C76.8828,30.8815 76.6185,29.4414 76.0898,28.3477 C75.2148,26.5247 73.6289,25.6133 71.332,25.6133 C70.1654,25.6133 69.2083,25.7318 68.4609,25.9688 C67.112,26.3698 65.9271,27.1719 64.9062,28.375 C64.0859,29.3411 63.5527,30.3392 63.3066,31.3691 C63.0605,32.3991 62.9375,33.8711 62.9375,35.7852 L62.9375,51.125 L58.0156,51.125 L58.0156,21.8398 M107.49,44.248 C108.702,41.778 109.309,39.0299 109.309,36.0039 C109.309,33.2695 108.871,31.0456 107.996,29.332 C106.611,26.6341 104.223,25.2852 100.832,25.2852 C97.8242,25.2852 95.6367,26.4336 94.2695,28.7305 C92.9023,31.0273 92.2188,33.7982 92.2188,37.043 C92.2188,40.1602 92.9023,42.7578 94.2695,44.8359 C95.6367,46.9141 97.806,47.9531 100.777,47.9531 C104.04,47.9531 106.278,46.7181 107.49,44.248 M110.539,24.7656 C113.146,27.2812 114.449,30.9818 114.449,35.8672 C114.449,40.5885 113.301,44.4896 111.004,47.5703 C108.707,50.651 105.143,52.1914 100.312,52.1914 C96.2839,52.1914 93.0846,50.8288 90.7148,48.1035 C88.345,45.3783 87.1602,41.7188 87.1602,37.125 C87.1602,32.2031 88.4089,28.2839 90.9062,25.3672 C93.4036,22.4505 96.7578,20.9922 100.969,20.9922 C104.742,20.9922 107.932,22.25 110.539,24.7656 M122.703,21.8398 L130.523,45.6836 L138.699,21.8398 L144.086,21.8398 L133.039,51.125 L127.789,51.125 L116.988,21.8398 L122.703,21.8398 M153.629,46.6953 C154.668,47.5156 155.898,47.9258 157.32,47.9258 C159.052,47.9258 160.729,47.5247 162.352,46.7227 C165.086,45.3919 166.453,43.2135 166.453,40.1875 L166.453,36.2227 C165.852,36.6055 165.077,36.9245 164.129,37.1797 C163.181,37.4349 162.251,37.6172 161.34,37.7266 L158.359,38.1094 C156.573,38.3464 155.233,38.7201 154.34,39.2305 C152.827,40.0872 152.07,41.4544 152.07,43.332 C152.07,44.7539 152.59,45.875 153.629,46.6953 M163.992,33.3789 C165.122,33.2331 165.879,32.7591 166.262,31.957 C166.48,31.5195 166.59,30.8906 166.59,30.0703 C166.59,28.3932 165.993,27.1764 164.799,26.4199 C163.605,25.6634 161.896,25.2852 159.672,25.2852 C157.102,25.2852 155.279,25.9779 154.203,27.3633 C153.602,28.1289 153.21,29.2682 153.027,30.7812 L148.434,30.7812 C148.525,27.1719 149.696,24.6608 151.947,23.248 C154.199,21.8353 156.81,21.1289 159.781,21.1289 C163.227,21.1289 166.025,21.7852 168.176,23.0977 C170.309,24.4102 171.375,26.4518 171.375,29.2227 L171.375,46.0938 C171.375,46.6042 171.48,47.0143 171.689,47.3242 C171.899,47.6341 172.341,47.7891 173.016,47.7891 C173.234,47.7891 173.48,47.7754 173.754,47.748 C174.027,47.7207 174.319,47.6797 174.629,47.625 L174.629,51.2617 C173.863,51.4805 173.28,51.6172 172.879,51.6719 C172.478,51.7266 171.931,51.7539 171.238,51.7539 C169.543,51.7539 168.312,51.1523 167.547,49.9492 C167.146,49.3112 166.863,48.4089 166.699,47.2422 C165.697,48.5547 164.257,49.694 162.379,50.6602 C160.501,51.6263 158.432,52.1094 156.172,52.1094 C153.456,52.1094 151.236,51.2845 149.514,49.6348 C147.791,47.985 146.93,45.9206 146.93,43.4414 C146.93,40.7253 147.777,38.6198 149.473,37.125 C151.168,35.6302 153.392,34.7096 156.145,34.3633 L163.992,33.3789 M180.422,13.6641 L185.398,13.6641 L185.398,21.8398 L190.074,21.8398 L190.074,25.8594 L185.398,25.8594 L185.398,44.9727 C185.398,45.9935 185.745,46.6771 186.438,47.0234 C186.82,47.224 187.458,47.3242 188.352,47.3242 C188.589,47.3242 188.844,47.3197 189.117,47.3105 C189.391,47.3014 189.71,47.2786 190.074,47.2422 L190.074,51.125 C189.509,51.2891 188.921,51.4076 188.311,51.4805 C187.7,51.5534 187.039,51.5898 186.328,51.5898 C184.031,51.5898 182.473,51.002 181.652,49.8262 C180.832,48.6504 180.422,47.1237 180.422,45.2461 L180.422,25.8594 L176.457,25.8594 L176.457,21.8398 L180.422,21.8398 L180.422,13.6641 M194.984,21.9766 L199.988,21.9766 L199.988,51.125 L194.984,51.125 L194.984,21.9766 M194.984,10.957 L199.988,10.957 L199.988,16.5352 L194.984,16.5352 L194.984,10.957 M225.756,44.248 C226.968,41.778 227.574,39.0299 227.574,36.0039 C227.574,33.2695 227.137,31.0456 226.262,29.332 C224.876,26.6341 222.488,25.2852 219.098,25.2852 C216.09,25.2852 213.902,26.4336 212.535,28.7305 C211.168,31.0273 210.484,33.7982 210.484,37.043 C210.484,40.1602 211.168,42.7578 212.535,44.8359 C213.902,46.9141 216.072,47.9531 219.043,47.9531 C222.306,47.9531 224.544,46.7181 225.756,44.248 M228.805,24.7656 C231.411,27.2812 232.715,30.9818 232.715,35.8672 C232.715,40.5885 231.566,44.4896 229.27,47.5703 C226.973,50.651 223.409,52.1914 218.578,52.1914 C214.549,52.1914 211.35,50.8288 208.98,48.1035 C206.611,45.3783 205.426,41.7188 205.426,37.125 C205.426,32.2031 206.674,28.2839 209.172,25.3672 C211.669,22.4505 215.023,20.9922 219.234,20.9922 C223.008,20.9922 226.198,22.25 228.805,24.7656 M238.562,21.8398 L243.238,21.8398 L243.238,25.9961 C244.624,24.2826 246.091,23.0521 247.641,22.3047 C249.19,21.5573 250.913,21.1836 252.809,21.1836 C256.965,21.1836 259.772,22.6328 261.23,25.5312 C262.033,27.1172 262.434,29.3867 262.434,32.3398 L262.434,51.125 L257.43,51.125 L257.43,32.668 C257.43,30.8815 257.165,29.4414 256.637,28.3477 C255.762,26.5247 254.176,25.6133 251.879,25.6133 C250.712,25.6133 249.755,25.7318 249.008,25.9688 C247.659,26.3698 246.474,27.1719 245.453,28.375 C244.633,29.3411 244.1,30.3392 243.854,31.3691 C243.607,32.3991 243.484,33.8711 243.484,35.7852 L243.484,51.125 L238.562,51.125 L238.562,21.8398 Z" style="stroke:none;fill-rule:nonzero;fill:#777777;fill-opacity:1;"/>
        </g>
        <g id="Shape2">
            <desc shapeID="2" type="2" basicInfo-basicType="0" basicInfo-roundedRectRadius="12" basicInfo-polygonSides="6" basicInfo-starPoints="5" bounding="rect(-55.0471,-28,110.094,56)" text="Lair" font-familyName="Helvetica Neue" font-pixelSize="56" font-bold="1" font-underline="0" font-alignment="0" strokeStyle="0" markerStart="0" markerEnd="0" shadowEnabled="0" shadowOffsetX="0" shadowOffsetY="2" shadowBlur="4" shadowOpacity="160" blurEnabled="0" blurRadius="4" transform="matrix(1,0,0,1,322.229,30.854)" pers-center="0,0" pers-size="0,0" pers-start="0,0" pers-end="0,0" locked="0" mesh="" flag=""/>
            <path id="shapePath2" d="M271.046,11.4794 L271.046,51.4634 L299.326,51.4634 L299.326,44.0714 L279.838,44.0714 L279.838,11.4794 L271.046,11.4794 M303.073,31.4154 C303.185,29.5487 303.652,27.9994 304.473,26.7674 C305.294,25.5354 306.34,24.5461 307.609,23.7994 C308.879,23.0527 310.306,22.5207 311.893,22.2034 C313.48,21.8861 315.076,21.7274 316.681,21.7274 C318.137,21.7274 319.612,21.8301 321.105,22.0354 C322.599,22.2407 323.961,22.6421 325.193,23.2394 C326.425,23.8367 327.433,24.6674 328.217,25.7314 C329.001,26.7954 329.393,28.2047 329.393,29.9594 L329.393,45.0234 C329.393,46.3301 329.468,47.5807 329.617,48.7754 C329.767,49.9701 330.028,50.8661 330.401,51.4634 L322.337,51.4634 C322.188,51.0154 322.066,50.5581 321.973,50.0914 C321.88,49.6247 321.814,49.1487 321.777,48.6634 C320.508,49.9701 319.014,50.8847 317.297,51.4074 C315.58,51.9301 313.825,52.1914 312.033,52.1914 C310.652,52.1914 309.364,52.0234 308.169,51.6874 C306.974,51.3514 305.929,50.8287 305.033,50.1194 C304.137,49.4101 303.437,48.5141 302.933,47.4314 C302.429,46.3487 302.177,45.0607 302.177,43.5674 C302.177,41.9247 302.466,40.5714 303.045,39.5074 C303.624,38.4434 304.37,37.5941 305.285,36.9594 C306.2,36.3247 307.245,35.8487 308.421,35.5314 C309.597,35.2141 310.783,34.9621 311.977,34.7754 C313.172,34.5887 314.348,34.4394 315.505,34.3274 C316.663,34.2154 317.689,34.0474 318.585,33.8234 C319.481,33.5994 320.19,33.2727 320.713,32.8434 C321.236,32.4141 321.478,31.7887 321.441,30.9674 C321.441,30.1087 321.301,29.4274 321.021,28.9234 C320.741,28.4194 320.368,28.0274 319.901,27.7474 C319.435,27.4674 318.893,27.2807 318.277,27.1874 C317.661,27.0941 316.999,27.0474 316.289,27.0474 C314.721,27.0474 313.489,27.3834 312.593,28.0554 C311.697,28.7274 311.174,29.8474 311.025,31.4154 L303.073,31.4154 M321.441,37.2954 C321.105,37.5941 320.685,37.8274 320.181,37.9954 C319.677,38.1634 319.136,38.3034 318.557,38.4154 C317.978,38.5274 317.372,38.6207 316.737,38.6954 C316.103,38.7701 315.468,38.8634 314.833,38.9754 C314.236,39.0874 313.648,39.2367 313.069,39.4234 C312.491,39.6101 311.987,39.8621 311.557,40.1794 C311.128,40.4967 310.783,40.8981 310.521,41.3834 C310.26,41.8687 310.129,42.4847 310.129,43.2314 C310.129,43.9407 310.26,44.5381 310.521,45.0234 C310.783,45.5087 311.137,45.8914 311.585,46.1714 C312.033,46.4514 312.556,46.6474 313.153,46.7594 C313.75,46.8714 314.366,46.9274 315.001,46.9274 C316.569,46.9274 317.783,46.6661 318.641,46.1434 C319.5,45.6207 320.134,44.9954 320.545,44.2674 C320.956,43.5394 321.208,42.8021 321.301,42.0554 C321.395,41.3087 321.441,40.7114 321.441,40.2634 L321.441,37.2954 M343.726,18.0314 L343.726,11.4794 L335.774,11.4794 L335.774,18.0314 L343.726,18.0314 M335.774,22.5114 L335.774,51.4634 L343.726,51.4634 L343.726,22.5114 L335.774,22.5114 M349.987,22.5114 L349.987,51.4634 L357.939,51.4634 L357.939,38.4154 C357.939,37.1087 358.07,35.8954 358.331,34.7754 C358.593,33.6554 359.031,32.6754 359.647,31.8354 C360.263,30.9954 361.075,30.3327 362.083,29.8474 C363.091,29.3621 364.323,29.1194 365.779,29.1194 C366.265,29.1194 366.769,29.1474 367.291,29.2034 C367.814,29.2594 368.262,29.3247 368.635,29.3994 L368.635,22.0074 C368.001,21.8207 367.422,21.7274 366.899,21.7274 C365.891,21.7274 364.921,21.8767 363.987,22.1754 C363.054,22.4741 362.177,22.8941 361.355,23.4354 C360.534,23.9767 359.806,24.6301 359.171,25.3954 C358.537,26.1607 358.033,26.9914 357.659,27.8874 L357.547,27.8874 L357.547,22.5114 L349.987,22.5114 Z" style="stroke:none;fill-rule:nonzero;fill:#909090;fill-opacity:1;"/>
        </g>
    </g>
</svg>
